<?xml version="1.0" encoding="UTF-8" standalone="no"?>
<svg width="100%" height="100%" viewBox="0 0 500 500" version="1.1"
  xmlns="http://www.w3.org/2000/svg"
  xmlns:xlink="http://www.w3.org/1999/xlink" xml:space="preserve" style="fill-rule:evenodd;clip-rule:evenodd;stroke-linecap:round;stroke-linejoin:round;stroke-miterlimit:1.5;">
  <g id="Layer1">
    <path d="M246.685,225.406c0,0 -75.613,-89.445 -73.667,-131.745c1.825,-39.653 33.671,-71.922 73.912,-71.922c40.242,0 74.769,37.701 72.913,75.922c-2.212,45.528 -73.158,127.745 -73.158,127.745Z" style="fill: #fff;" class="petal" />
    <path d="M270.281,249.81c0,0 89.445,-75.613 131.746,-73.667c39.652,1.825 71.921,33.671 71.921,73.912c0,40.242 -37.701,74.769 -75.921,72.913c-45.529,-2.212 -127.746,-73.158 -127.746,-73.158Z" style="fill: #fff;" class="petal" />
    <path d="M223.281,249.477c0,0 -89.445,-75.614 -131.745,-73.667c-39.653,1.824 -71.922,33.671 -71.922,73.912c0,40.241 37.701,74.769 75.922,72.912c45.528,-2.211 127.745,-73.157 127.745,-73.157Z" style="fill: #fff;" class="petal" />
    <path d="M246.685,271.073c0,0 -75.613,89.445 -73.667,131.745c1.825,39.653 33.671,71.921 73.912,71.921c40.242,0 74.769,-37.7 72.913,-75.921c-2.212,-45.528 -73.158,-127.745 -73.158,-127.745Z" style="fill: #fff;" class="petal" />
    <path d="M200.455,202.151l92.667,92.667" style="fill:none;stroke-width:6.58px;stroke: #fff;" class="line" />
    <path d="M293.122,202.151l-92.667,92.667" style="fill:none;stroke-width:6.58px;stroke: #fff;" class="line" />
  </g>
</svg>
